<?xml version="1.0" encoding="utf-8"?>
<svg width="172" height="48" viewBox="0 0 171.903 29.686" fill="none" xmlns="http://www.w3.org/2000/svg">
  <path d="M0.105957 28.9377H11.2786V24.781H0.105957V28.9377ZM33.4915 20.9156C33.465 20.9156 33.4386 20.9156 33.4121 20.9156C33.3327 20.9156 33.2532 20.9156 33.1738 20.9421C33.1208 20.9421 33.0679 20.9421 33.0149 20.9421C32.9355 20.9421 32.8561 20.9421 32.7767 20.9421C32.7237 20.9421 32.6972 20.9421 32.6443 20.9421C32.5649 20.9421 32.5119 20.9421 32.4325 20.9421C32.3795 20.9421 32.3001 20.9421 32.2472 20.9421C32.2207 20.9421 32.1677 20.9421 32.1413 20.9421C29.0701 20.9421 26.2108 20.3596 24.7811 19.8831C23.3249 19.4065 21.0745 18.8505 19.5389 18.824C18.0034 18.824 16.0442 19.1947 13.8467 19.936C12.9466 20.2272 12.0729 20.4655 11.2786 20.6244H0.105957V22.6895H11.2786C12.0729 22.5306 12.9201 22.2923 13.8467 22.0011C16.0442 21.2863 18.0034 20.8891 19.5389 20.8891C20.3862 20.8891 21.4716 21.0745 22.5042 21.3127V28.8847H33.6239V22.9542C36.192 22.7159 38.5218 21.9217 38.5218 21.9217V19.8566C38.5218 19.8831 36.1126 20.6773 33.4915 20.9156ZM11.2521 18.5858C12.0464 18.4269 12.8936 18.2151 13.7938 17.8974C15.9912 17.1826 17.9504 16.7854 19.486 16.7854C21.0216 16.7854 23.2985 17.3679 24.7281 17.8445C26.1843 18.321 29.0172 18.9035 32.0883 18.9035C35.1595 18.9035 38.4954 17.7915 38.4954 17.7915V15.7264C38.4954 15.7264 36.1655 16.4942 33.5974 16.759V10.246L16.8384 0L0.105957 10.246V14.4821H11.2786V10.246H22.4777V15.1704C21.4452 14.9322 20.3597 14.7468 19.5125 14.7468C17.9769 14.7468 16.0177 15.1175 13.8202 15.8588C12.9201 16.15 12.0464 16.3883 11.2786 16.5472H0.105957V18.6122L11.2521 18.5858Z" fill="#002855" clip-path="url(#clip0_793_1557)"/>
  <path d="M50.9123 22.4247V28.9376H44.77V10.2195H53.6128C59.8345 10.2195 61.8996 11.9139 61.8996 15.5411C61.8996 17.6856 60.9465 19.5124 58.749 20.1213C60.7347 20.8361 61.9261 21.3127 61.9261 25.0722C61.9261 27.508 61.8467 28.3552 62.588 28.3552V28.9376H56.3663C56.2074 28.514 56.0486 27.3226 56.0486 25.6547C56.0486 23.2189 55.6249 22.3982 52.7656 22.3982H50.9123V22.4247ZM50.9123 18.321H53.3216C55.2278 18.321 56.2339 17.8444 56.2339 16.5471C56.2339 15.2233 55.2013 14.5879 53.7717 14.5879H50.9123V18.321Z" fill="#002855" clip-path="url(#clip0_793_1557)"/>
  <path d="M65.3416 28.9376V10.2195H80.5914V14.5879H71.4839V17.262H79.1882V21.6304H71.4839V24.5692H80.9621V28.9376H65.3416Z" fill="#002855" clip-path="url(#clip0_793_1557)"/>
  <path d="M96.2649 20.439L96.0266 16.1765V10.2195H101.904V28.9112H96.159L89.4872 18.7446L89.7254 23.0071V28.9376H83.8479V10.2195H89.5931L96.2649 20.439Z" fill="#002855" clip-path="url(#clip0_793_1557)"/>
  <path d="M115.142 15.6471C115.036 15.0116 114.692 14.6145 114.268 14.3762C113.818 14.138 113.288 14.0321 112.68 14.0321C111.329 14.0321 110.72 14.4292 110.72 15.0911C110.72 17.8975 121.469 16.1501 121.469 22.9543C121.469 27.2963 117.869 29.3878 112.706 29.3878C107.782 29.3878 104.552 26.502 104.419 23.1396H110.297C110.429 23.828 110.8 24.3045 111.303 24.6222C111.806 24.9399 112.441 25.0988 113.05 25.0988C114.586 25.0988 115.592 24.5958 115.592 23.7221C115.592 20.8892 104.843 22.8484 104.843 15.7C104.843 11.7287 108.285 9.71655 112.944 9.71655C118.133 9.71655 120.516 12.3641 120.94 15.6471H115.142Z" fill="#002855" clip-path="url(#clip0_793_1557)"/>
  <path d="M142.676 19.4859C142.676 25.84 138.387 29.4407 132.854 29.4407C126.976 29.4407 123.058 25.8135 123.058 19.4329C123.058 13.5554 127.029 9.74292 132.854 9.74292C139.526 9.74292 142.676 14.535 142.676 19.4859ZM129.174 19.4859C129.174 21.8687 129.889 24.8604 132.827 24.8604C135.475 24.8604 136.507 22.5835 136.507 19.4859C136.507 16.9442 135.475 14.2437 132.774 14.3232C130.021 14.2967 129.174 17.1031 129.174 19.4859Z" fill="#002855" clip-path="url(#clip0_793_1557)"/>
  <path d="M157.741 20.439L157.502 16.1765V10.2195H163.38V28.9112H157.635L150.963 18.7181L151.201 22.9807V28.9112H145.324V10.2195H151.069L157.741 20.439Z" fill="#002855" clip-path="url(#clip0_793_1557)"/>
  <path d="M168.172 16.0177C166.504 16.0177 165.339 14.7734 165.339 13.1319C165.339 11.3845 166.663 10.2461 168.172 10.2461C169.681 10.2461 171.005 11.3845 171.005 13.1319C171.005 14.8793 169.681 16.0177 168.172 16.0177ZM168.172 10.7491C166.928 10.7491 165.948 11.7287 165.948 13.1319C165.948 14.4557 166.796 15.5147 168.172 15.5147C169.417 15.5147 170.37 14.5351 170.37 13.1319C170.396 11.7287 169.417 10.7491 168.172 10.7491ZM167.616 14.7734H167.087V11.5963H168.305C169.072 11.5963 169.47 11.8611 169.47 12.523C169.47 13.1054 169.125 13.3437 168.622 13.3967L169.522 14.7999H168.914L168.093 13.4231H167.59V14.7734H167.616ZM168.199 12.9731C168.596 12.9731 168.94 12.9466 168.94 12.47C168.94 12.0729 168.569 12.0464 168.252 12.0464H167.616V12.9731H168.199Z" fill="#002855" clip-path="url(#clip0_793_1557)"/>
  <defs>
    <clipPath id="clip0_793_1557">
      <rect width="171.005" height="48" fill="white"/>
    </clipPath>
  </defs>
</svg>